<?xml version="1.0" encoding="UTF-8"?>
<svg width="300" height="300" viewBox="0 0 300 300" fill="none" xmlns="http://www.w3.org/2000/svg">
  <!-- Outer circle -->
  <circle cx="150" cy="150" r="140" fill="#4A86E8" fill-opacity="0.1" stroke="#4A86E8" stroke-width="5"/>

  <!-- Corgi body -->
  <ellipse cx="150" cy="160" rx="100" ry="85" fill="#F5B700"/>
  
  <!-- Corgi ears -->
  <path d="M75 100C70 80 55 75 40 70C30 90 35 120 50 130C60 135 85 130 75 100Z" fill="#F5B700"/>
  <path d="M225 100C230 80 245 75 260 70C270 90 265 120 250 130C240 135 215 130 225 100Z" fill="#F5B700"/>
  
  <!-- Inner shield -->
  <path d="M150 220C190 220 210 190 210 160C210 130 190 90 150 90C110 90 90 130 90 160C90 190 110 220 150 220Z" fill="#FFFFFF" fill-opacity="0.8" stroke="#4A86E8" stroke-width="4"/>
  
  <!-- Eyes -->
  <circle cx="110" cy="140" r="12" fill="#333333"/>
  <circle cx="190" cy="140" r="12" fill="#333333"/>
  
  <!-- Light reflections in eyes -->
  <circle cx="105" cy="135" r="3" fill="#FFFFFF"/>
  <circle cx="185" cy="135" r="3" fill="#FFFFFF"/>
  
  <!-- Nose -->
  <path d="M150 160C156 160 160 154 160 148C160 142 156 138 150 138C144 138 140 142 140 148C140 154 144 160 150 160Z" fill="#333333"/>
  
  <!-- Mouth -->
  <path d="M130 170C140 190 160 190 170 170" stroke="#333333" stroke-width="5" stroke-linecap="round"/>
  
  <!-- Lock icon -->
  <rect x="135" y="180" width="30" height="25" rx="5" fill="#4A86E8"/>
  <rect x="140" y="170" width="20" height="15" rx="5" fill="#4A86E8"/>
  <circle cx="150" cy="192" r="5" fill="white"/>
  
  <!-- Phishing protection text -->
  <path d="M85 245A 100 100 0 0 0 215 245" stroke="#4A86E8" stroke-width="2" fill="none"/>
  <text x="150" y="250" font-family="'Montserrat', sans-serif" font-size="18" font-weight="700" text-anchor="middle" fill="#4A86E8">PHISHING PROTECTION</text>
  
  <!-- CorgPhish text -->
  <text x="150" y="65" font-family="'Montserrat', sans-serif" font-size="24" font-weight="700" text-anchor="middle" fill="#333333">CorgPhish</text>
</svg> 